%TF.GenerationSoftware,KiCad,Pcbnew,(6.0.2)*%
%TF.CreationDate,2022-04-29T18:18:38+02:00*%
%TF.ProjectId,reflowControllerV2,7265666c-6f77-4436-9f6e-74726f6c6c65,rev?*%
%TF.SameCoordinates,Original*%
%TF.FileFunction,Soldermask,Bot*%
%TF.FilePolarity,Negative*%
%FSLAX46Y46*%
G04 Gerber Fmt 4.6, Leading zero omitted, Abs format (unit mm)*
G04 Created by KiCad (PCBNEW (6.0.2)) date 2022-04-29 18:18:38*
%MOMM*%
%LPD*%
G01*
G04 APERTURE LIST*
G04 Aperture macros list*
%AMRoundRect*
0 Rectangle with rounded corners*
0 $1 Rounding radius*
0 $2 $3 $4 $5 $6 $7 $8 $9 X,Y pos of 4 corners*
0 Add a 4 corners polygon primitive as box body*
4,1,4,$2,$3,$4,$5,$6,$7,$8,$9,$2,$3,0*
0 Add four circle primitives for the rounded corners*
1,1,$1+$1,$2,$3*
1,1,$1+$1,$4,$5*
1,1,$1+$1,$6,$7*
1,1,$1+$1,$8,$9*
0 Add four rect primitives between the rounded corners*
20,1,$1+$1,$2,$3,$4,$5,0*
20,1,$1+$1,$4,$5,$6,$7,0*
20,1,$1+$1,$6,$7,$8,$9,0*
20,1,$1+$1,$8,$9,$2,$3,0*%
G04 Aperture macros list end*
%ADD10C,1.000000*%
%ADD11C,6.400000*%
%ADD12C,0.800000*%
%ADD13R,1.700000X1.700000*%
%ADD14O,1.700000X1.700000*%
%ADD15R,2.000000X2.000000*%
%ADD16C,2.000000*%
%ADD17R,2.600000X2.600000*%
%ADD18C,2.600000*%
%ADD19C,0.700000*%
%ADD20O,1.500000X1.000000*%
%ADD21R,1.500000X1.000000*%
%ADD22RoundRect,0.250000X-0.600000X-0.725000X0.600000X-0.725000X0.600000X0.725000X-0.600000X0.725000X0*%
%ADD23O,1.700000X1.950000*%
%ADD24C,1.850000*%
%ADD25R,1.875000X1.875000*%
%ADD26C,1.875000*%
%ADD27RoundRect,0.200000X0.200000X0.275000X-0.200000X0.275000X-0.200000X-0.275000X0.200000X-0.275000X0*%
G04 APERTURE END LIST*
D10*
X336942Y-91803099D02*
X3946542Y-88298320D01*
X3946542Y-88298320D02*
X3612866Y-88265456D01*
X3612866Y-88265456D02*
X3284017Y-88200043D01*
X3284017Y-88200043D02*
X2963164Y-88102712D01*
X2963164Y-88102712D02*
X2653396Y-87974401D01*
X2653396Y-87974401D02*
X2357696Y-87816344D01*
X2357696Y-87816344D02*
X2078912Y-87630065D01*
X2078912Y-87630065D02*
X1819730Y-87417356D01*
X1819730Y-87417356D02*
X1700000Y-87300000D01*
X1700000Y-87300000D02*
X1559287Y-87156222D01*
X1559287Y-87156222D02*
X1304050Y-86845216D01*
X1304050Y-86845216D02*
X1080527Y-86510690D01*
X1080527Y-86510690D02*
X890869Y-86155865D01*
X890869Y-86155865D02*
X736904Y-85784160D01*
X736904Y-85784160D02*
X620113Y-85399153D01*
X620113Y-85399153D02*
X541622Y-85004552D01*
X541622Y-85004552D02*
X502186Y-84604159D01*
X502186Y-84604159D02*
X-3277226Y-87906092D01*
X-3277226Y-87906092D02*
X336942Y-91803099D01*
X41917737Y1890120D02*
X39199664Y-701921D01*
X39199664Y-701921D02*
X39542409Y-740539D01*
X39542409Y-740539D02*
X39878674Y-817289D01*
X39878674Y-817289D02*
X40204231Y-931206D01*
X40204231Y-931206D02*
X40514987Y-1080858D01*
X40514987Y-1080858D02*
X40807033Y-1264363D01*
X40807033Y-1264363D02*
X41076697Y-1479413D01*
X41076697Y-1479413D02*
X41200000Y-1600000D01*
X41200000Y-1600000D02*
X41337732Y-1740723D01*
X41337732Y-1740723D02*
X41587554Y-2045131D01*
X41587554Y-2045131D02*
X41806335Y-2372561D01*
X41806335Y-2372561D02*
X41991968Y-2719857D01*
X41991968Y-2719857D02*
X42142668Y-3083677D01*
X42142668Y-3083677D02*
X42256980Y-3460516D01*
X42256980Y-3460516D02*
X42333806Y-3846745D01*
X42333806Y-3846745D02*
X42372405Y-4238644D01*
X42372405Y-4238644D02*
X45265049Y-1845422D01*
X45265049Y-1845422D02*
X41917737Y1890120D01*
X890765Y491781D02*
X1880512Y-1479414D01*
X1880512Y-1479414D02*
X2150175Y-1264364D01*
X2150175Y-1264364D02*
X2442221Y-1080859D01*
X2442221Y-1080859D02*
X2752977Y-931207D01*
X2752977Y-931207D02*
X3078534Y-817289D01*
X3078534Y-817289D02*
X3414800Y-740539D01*
X3414800Y-740539D02*
X3757544Y-701922D01*
X3757544Y-701922D02*
X3063557Y1391781D01*
X3063557Y1391781D02*
X890765Y491781D01*
X45359933Y-87986129D02*
X42372818Y-85010662D01*
X42372818Y-85010662D02*
X42340791Y-85335834D01*
X42340791Y-85335834D02*
X42277047Y-85656302D01*
X42277047Y-85656302D02*
X42182198Y-85968978D01*
X42182198Y-85968978D02*
X42057158Y-86270852D01*
X42057158Y-86270852D02*
X41903132Y-86559016D01*
X41903132Y-86559016D02*
X41721602Y-86830695D01*
X41721602Y-86830695D02*
X41514318Y-87083274D01*
X41514318Y-87083274D02*
X41400000Y-87200000D01*
X41400000Y-87200000D02*
X41268219Y-87329008D01*
X41268219Y-87329008D02*
X40983123Y-87562980D01*
X40983123Y-87562980D02*
X40676467Y-87767881D01*
X40676467Y-87767881D02*
X40351203Y-87941738D01*
X40351203Y-87941738D02*
X40010465Y-88082877D01*
X40010465Y-88082877D02*
X39657534Y-88189937D01*
X39657534Y-88189937D02*
X39295808Y-88261889D01*
X39295808Y-88261889D02*
X38928772Y-88298039D01*
X38928772Y-88298039D02*
X41729779Y-91438840D01*
X41729779Y-91438840D02*
X45359933Y-87986129D01*
X-2771199Y-3046317D02*
X584802Y-4238644D01*
X584802Y-4238644D02*
X623401Y-3846745D01*
X623401Y-3846745D02*
X700227Y-3460516D01*
X700227Y-3460516D02*
X814540Y-3083677D01*
X814540Y-3083677D02*
X965239Y-2719857D01*
X965239Y-2719857D02*
X1150873Y-2372560D01*
X1150873Y-2372560D02*
X1369654Y-2045131D01*
X1369654Y-2045131D02*
X1619475Y-1740723D01*
X1619475Y-1740723D02*
X-1596679Y-210775D01*
X-1596679Y-210775D02*
X-2771199Y-3046317D01*
D11*
%TO.C,H4*%
X39000000Y-70000000D03*
D12*
X37302944Y-68302944D03*
X41400000Y-70000000D03*
X40697056Y-68302944D03*
X36600000Y-70000000D03*
X40697056Y-71697056D03*
X37302944Y-71697056D03*
X39000000Y-72400000D03*
X39000000Y-67600000D03*
%TD*%
D13*
%TO.C,J7*%
X3250000Y-11475000D03*
D14*
X5790000Y-11475000D03*
%TD*%
D13*
%TO.C,J3*%
X3250000Y-24975000D03*
D14*
X5790000Y-24975000D03*
%TD*%
D13*
%TO.C,J2*%
X3250000Y-31725000D03*
D14*
X5790000Y-31725000D03*
%TD*%
D15*
%TO.C,BZ1*%
X24229216Y-9200000D03*
D16*
X29229216Y-9200000D03*
%TD*%
D17*
%TO.C,J11*%
X37805000Y-63000000D03*
D18*
X37805000Y-58000000D03*
%TD*%
D13*
%TO.C,J8*%
X38455000Y-36610000D03*
D14*
X38455000Y-34070000D03*
X38455000Y-31530000D03*
X38455000Y-28990000D03*
X38455000Y-26450000D03*
%TD*%
D12*
%TO.C,H3*%
X2302944Y-71697056D03*
X4000000Y-72400000D03*
X5697056Y-68302944D03*
X2302944Y-68302944D03*
X6400000Y-70000000D03*
X5697056Y-71697056D03*
D11*
X4000000Y-70000000D03*
D12*
X1600000Y-70000000D03*
X4000000Y-67600000D03*
%TD*%
%TO.C,H1*%
X4000000Y-6400000D03*
X1600000Y-4000000D03*
X2302944Y-5697056D03*
X6400000Y-4000000D03*
X5697056Y-2302944D03*
X2302944Y-2302944D03*
X4000000Y-1600000D03*
D11*
X4000000Y-4000000D03*
D12*
X5697056Y-5697056D03*
%TD*%
D13*
%TO.C,J4*%
X37250000Y-19725000D03*
D14*
X39790000Y-19725000D03*
%TD*%
D12*
%TO.C,H2*%
X37302944Y-2302944D03*
X36600000Y-4000000D03*
X37302944Y-5697056D03*
X41400000Y-4000000D03*
X40697056Y-2302944D03*
D11*
X39000000Y-4000000D03*
D12*
X39000000Y-6400000D03*
X40697056Y-5697056D03*
X39000000Y-1600000D03*
%TD*%
D13*
%TO.C,J6*%
X3250000Y-18225000D03*
D14*
X5790000Y-18225000D03*
%TD*%
D13*
%TO.C,J5*%
X37250000Y-12975000D03*
D14*
X39790000Y-12975000D03*
%TD*%
D19*
%TO.C,U2*%
X24340000Y-75920000D03*
X23340000Y-75920000D03*
X22340000Y-75920000D03*
X21340000Y-75920000D03*
X20340000Y-75920000D03*
X19340000Y-75920000D03*
X18340000Y-75920000D03*
X18660000Y-77080000D03*
X19660000Y-77080000D03*
X20660000Y-77080000D03*
X21660000Y-77080000D03*
X22660000Y-77080000D03*
X23660000Y-77080000D03*
X24660000Y-77080000D03*
D20*
X23870000Y-74670000D03*
X23870000Y-78330000D03*
X19130000Y-74670000D03*
X19130000Y-78330000D03*
%TD*%
D21*
%TO.C,D2*%
X11450000Y-75400000D03*
X11450000Y-78600000D03*
X6550000Y-78600000D03*
X6550000Y-75400000D03*
%TD*%
D14*
%TO.C,J9*%
X12795000Y-84925000D03*
X10255000Y-84925000D03*
X7715000Y-84925000D03*
D13*
X5175000Y-84925000D03*
%TD*%
D22*
%TO.C,J10*%
X10750000Y-7372500D03*
D23*
X13290000Y-7372500D03*
X15790000Y-7372500D03*
X18290000Y-7372500D03*
%TD*%
D19*
%TO.C,U1*%
X24340000Y-84120000D03*
X23340000Y-84120000D03*
X22340000Y-84120000D03*
X21340000Y-84120000D03*
X20340000Y-84120000D03*
X19340000Y-84120000D03*
X18340000Y-84120000D03*
X18660000Y-85280000D03*
X19660000Y-85280000D03*
X20660000Y-85280000D03*
X21660000Y-85280000D03*
X22660000Y-85280000D03*
X23660000Y-85280000D03*
X24660000Y-85280000D03*
D20*
X23870000Y-86530000D03*
X23870000Y-82870000D03*
X19130000Y-86530000D03*
X19130000Y-82870000D03*
%TD*%
D24*
%TO.C,SW1*%
X34250000Y-75750000D03*
X34250000Y-84750000D03*
D25*
X40500000Y-77750000D03*
D26*
X28000000Y-77750000D03*
X40500000Y-82750000D03*
X28000000Y-82750000D03*
%TD*%
D27*
%TO.C,R6*%
X27825000Y-7300000D03*
X26175000Y-7300000D03*
%TD*%
G36*
X42829203Y-4438907D02*
G01*
X42865167Y-4488407D01*
X42870012Y-4518988D01*
X42879989Y-84733766D01*
X42861089Y-84791959D01*
X42811593Y-84827929D01*
X42794582Y-84831840D01*
X41982593Y-84944393D01*
X41922357Y-84933655D01*
X41879938Y-84889561D01*
X41870000Y-84846331D01*
X41870000Y-4519000D01*
X41888907Y-4460809D01*
X41938407Y-4424845D01*
X41969000Y-4420000D01*
X42771012Y-4420000D01*
X42829203Y-4438907D01*
G37*
G36*
X38800166Y-87808907D02*
G01*
X38836130Y-87858407D01*
X38840970Y-87888020D01*
X38849010Y-88700020D01*
X38830680Y-88758395D01*
X38781538Y-88794847D01*
X38750015Y-88800000D01*
X4019000Y-88800000D01*
X3960809Y-88781093D01*
X3924845Y-88731593D01*
X3920000Y-88701000D01*
X3920000Y-87889000D01*
X3938907Y-87830809D01*
X3988407Y-87794845D01*
X4019000Y-87790000D01*
X38741975Y-87790000D01*
X38800166Y-87808907D01*
G37*
G36*
X38959191Y-218907D02*
G01*
X38995155Y-268407D01*
X39000000Y-299000D01*
X39000000Y-1101000D01*
X38981093Y-1159191D01*
X38931593Y-1195155D01*
X38901000Y-1200000D01*
X4209000Y-1200000D01*
X4150809Y-1181093D01*
X4114845Y-1131593D01*
X4110000Y-1101000D01*
X4110000Y-299000D01*
X4128907Y-240809D01*
X4178407Y-204845D01*
X4209000Y-200000D01*
X38901000Y-200000D01*
X38959191Y-218907D01*
G37*
G36*
X1049163Y-4598907D02*
G01*
X1085127Y-4648407D01*
X1089972Y-4679028D01*
X1080001Y-40476912D01*
X1080382Y-40483060D01*
X1109298Y-40714384D01*
X1111957Y-40725312D01*
X1177986Y-40904534D01*
X1183231Y-40914847D01*
X1298806Y-41088209D01*
X1301343Y-41091678D01*
X1447008Y-41273760D01*
X1465359Y-41310096D01*
X1495892Y-41424594D01*
X1499064Y-41455917D01*
X1491039Y-41592339D01*
X1482910Y-41626206D01*
X1425639Y-41757112D01*
X1410992Y-41780810D01*
X1334766Y-41872280D01*
X1298921Y-41899368D01*
X1151074Y-41965078D01*
X1128071Y-41972105D01*
X987740Y-41996869D01*
X952291Y-41996679D01*
X833591Y-41974423D01*
X791055Y-41955265D01*
X636322Y-41834917D01*
X624555Y-41824136D01*
X505921Y-41696376D01*
X495279Y-41682682D01*
X305181Y-41388031D01*
X296451Y-41371128D01*
X163568Y-41038921D01*
X158213Y-41020556D01*
X91525Y-40668060D01*
X89822Y-40651809D01*
X80023Y-40201058D01*
X80000Y-40198906D01*
X80000Y-4679000D01*
X98907Y-4620809D01*
X148407Y-4584845D01*
X179000Y-4580000D01*
X990972Y-4580000D01*
X1049163Y-4598907D01*
G37*
G36*
X1044030Y-60003006D02*
G01*
X1154527Y-60026684D01*
X1183667Y-60037972D01*
X1283241Y-60096057D01*
X1296049Y-60104949D01*
X1387702Y-60179938D01*
X1408534Y-60203410D01*
X1460350Y-60284836D01*
X1473703Y-60317590D01*
X1505942Y-60470721D01*
X1506370Y-60509362D01*
X1483127Y-60633324D01*
X1471500Y-60664681D01*
X1375024Y-60831322D01*
X1363340Y-60847492D01*
X1214105Y-61015381D01*
X1207164Y-61025483D01*
X1063674Y-61302897D01*
X1058765Y-61317903D01*
X1010591Y-61626217D01*
X1009998Y-61633827D01*
X1000000Y-83940000D01*
X1000000Y-84490419D01*
X981093Y-84548610D01*
X931593Y-84584574D01*
X882521Y-84587679D01*
X80521Y-84435299D01*
X26882Y-84405862D01*
X790Y-84350519D01*
X0Y-84338039D01*
X0Y-61596167D01*
X764Y-61583888D01*
X9959Y-61510327D01*
X10027Y-61509745D01*
X19647Y-61423165D01*
X20549Y-61416892D01*
X49263Y-61254184D01*
X51099Y-61245881D01*
X89457Y-61102036D01*
X90621Y-61098014D01*
X138496Y-60944816D01*
X141994Y-60935348D01*
X228445Y-60733628D01*
X231833Y-60726517D01*
X327930Y-60543933D01*
X332419Y-60536260D01*
X435991Y-60376193D01*
X444875Y-60364474D01*
X585772Y-60204792D01*
X594814Y-60195788D01*
X735009Y-60073117D01*
X768894Y-60053702D01*
X888441Y-60013853D01*
X912155Y-60009065D01*
X1015694Y-60001100D01*
X1044030Y-60003006D01*
G37*
M02*
