M48
; DRILL file {KiCad (6.0.2)} date Fri Apr 29 18:18:35 2022
; FORMAT={-:-/ absolute / inch / decimal}
; #@! TF.CreationDate,2022-04-29T18:18:35+02:00
; #@! TF.GenerationSoftware,Kicad,Pcbnew,(6.0.2)
; #@! TF.FileFunction,Plated,1,4,PTH
FMAT,2
INCH
; #@! TA.AperFunction,Plated,PTH,ViaDrill
T1C0.0118
; #@! TA.AperFunction,Plated,PTH,ViaDrill
T2C0.0157
; #@! TA.AperFunction,Plated,PTH,ComponentDrill
T3C0.0157
; #@! TA.AperFunction,Plated,PTH,ComponentDrill
T4C0.0197
; #@! TA.AperFunction,Plated,PTH,ComponentDrill
T5C0.0236
; #@! TA.AperFunction,Plated,PTH,ComponentDrill
T6C0.0374
; #@! TA.AperFunction,Plated,PTH,ComponentDrill
T7C0.0394
; #@! TA.AperFunction,Plated,PTH,ComponentDrill
T8C0.0492
; #@! TA.AperFunction,Plated,PTH,ComponentDrill
T9C0.0512
; #@! TA.AperFunction,Plated,PTH,ComponentDrill
T10C0.1260
%
G90
G05
T1
X0.5906Y-1.8996
X0.6614Y-2.0157
X0.6969Y-2.0157
X0.7323Y-1.7028
X0.7402Y-1.5748
X0.7992Y-1.7657
X0.8209Y-1.502
X0.8209Y-1.7402
X0.8573Y-2.1407
X0.8642Y-1.5512
X0.8651Y-1.7087
X0.8651Y-2.0906
X0.9261Y-1.6476
X1.002Y-1.5965
X1.0965Y-1.8327
X1.0974Y-1.875
X1.1848Y-1.5672
X1.187Y-1.7382
X1.1929Y-1.7953
X1.1929Y-1.8445
T2
X0.0197Y-2.4508
X0.0197Y-2.5492
X0.0197Y-2.6476
X0.0197Y-2.7461
X0.0197Y-2.8445
X0.0197Y-2.9429
X0.0197Y-3.0413
X0.0197Y-3.1398
X0.0197Y-3.2283
X0.0197Y-3.323
X0.0236Y-0.2913
X0.0236Y-0.3898
X0.0236Y-0.4882
X0.0236Y-0.5866
X0.0236Y-0.685
X0.0236Y-0.7835
X0.0236Y-0.8819
X0.0236Y-0.9803
X0.0236Y-1.0787
X0.0236Y-1.1772
X0.0236Y-1.2756
X0.0236Y-1.374
X0.0236Y-1.4724
X0.0236Y-1.5709
X0.0394Y-1.6339
X0.0394Y-2.3819
X0.0472Y-3.4134
X0.0591Y-1.5709
X0.063Y-1.4528
X0.0787Y-1.6339
X0.0787Y-2.3819
X0.1181Y-1.4173
X0.1181Y-1.6339
X0.1181Y-2.3819
X0.1181Y-3.4685
X0.1575Y-1.6339
X0.1575Y-2.3819
X0.1693Y-2.498
X0.1969Y-0.0295
X0.1969Y-1.6339
X0.1969Y-2.3819
X0.2146Y-3.0949
X0.2165Y-3.4764
X0.2323Y-2.498
X0.2362Y-1.6339
X0.2362Y-2.3819
X0.2372Y-1.4537
X0.2567Y-3.0594
X0.2598Y-2.9449
X0.2756Y-1.6339
X0.2756Y-2.3819
X0.2766Y-1.4537
X0.2953Y-0.0295
X0.315Y-1.6339
X0.315Y-2.3819
X0.315Y-3.4764
X0.3159Y-1.4537
X0.3543Y-1.6339
X0.3543Y-2.3819
X0.3553Y-1.4537
X0.3937Y-0.0295
X0.3937Y-1.6339
X0.3937Y-2.3819
X0.3976Y-1.4537
X0.4134Y-1.6732
X0.4134Y-1.7126
X0.4134Y-1.752
X0.4134Y-1.7913
X0.4134Y-1.8307
X0.4134Y-1.8701
X0.4134Y-1.9094
X0.4134Y-1.9488
X0.4134Y-2.0768
X0.4134Y-2.1161
X0.4134Y-2.1555
X0.4134Y-2.1949
X0.4134Y-2.2343
X0.4134Y-2.2736
X0.4134Y-2.313
X0.4134Y-2.3524
X0.4134Y-3.4764
X0.4439Y-1.4606
X0.4567Y-0.6299
X0.4606Y-0.9488
X0.4642Y-2.0622
X0.4756Y-1.4862
X0.4921Y-0.0295
X0.5051Y-1.513
X0.5067Y-2.0626
X0.5118Y-3.4764
X0.5154Y-1.7516
X0.5154Y-1.7909
X0.5163Y-1.5547
X0.5163Y-1.5941
X0.5163Y-1.6335
X0.5163Y-1.6728
X0.5163Y-1.7122
X0.5409Y-1.8272
X0.5433Y-2.0728
X0.5748Y-2.8543
X0.5748Y-2.8937
X0.5756Y-1.8587
X0.5819Y-2.0618
X0.5906Y-0.0295
X0.6102Y-3.4764
X0.6299Y-3.0748
X0.6299Y-3.122
X0.6472Y-3.4177
X0.6516Y-1.872
X0.6614Y-2.4252
X0.689Y-0.0295
X0.7087Y-3.4764
X0.7244Y-2.4252
X0.7264Y-2.0541
X0.7264Y-2.0984
X0.7539Y-1.3563
X0.7539Y-1.4331
X0.7874Y-0.0295
X0.7913Y-1.3563
X0.7953Y-1.6161
X0.7972Y-2.128
X0.8071Y-3.4764
X0.8209Y-1.6614
X0.8287Y-1.3563
X0.8287Y-1.5866
X0.8386Y-1.8583
X0.8386Y-1.9176
X0.8386Y-1.9766
X0.8406Y-2.7028
X0.8858Y-0.0295
X0.8917Y-2.7028
X0.9055Y-3.4764
X0.9193Y-1.8583
X0.9193Y-1.9173
X0.9193Y-1.9764
X0.9272Y-1.1339
X0.9331Y-2.2461
X0.9488Y-1.5157
X0.9803Y-2.7441
X0.9843Y-0.0295
X1.0Y-1.858
X1.0Y-1.9173
X1.0Y-1.9764
X1.0039Y-3.4764
X1.0276Y-1.5079
X1.0325Y-2.1132
X1.0378Y-2.7256
X1.0571Y-1.7835
X1.0728Y-1.2244
X1.0827Y-0.0295
X1.0896Y-2.1073
X1.1004Y-1.7884
X1.1024Y-3.4764
X1.1043Y-2.1969
X1.1339Y-1.8622
X1.1339Y-2.2283
X1.1654Y-1.9606
X1.1693Y-3.0079
X1.1811Y-0.0295
X1.189Y-2.1368
X1.1969Y-2.9724
X1.1978Y-1.2234
X1.2008Y-3.4764
X1.2067Y-1.9311
X1.2146Y-2.0591
X1.2795Y-0.0295
X1.2992Y-3.4764
X1.3425Y-1.9488
X1.3425Y-2.0512
X1.3425Y-2.0906
X1.3425Y-2.1299
X1.378Y-0.0295
X1.3898Y-1.5591
X1.3898Y-2.0906
X1.3898Y-2.1299
X1.3976Y-3.4764
X1.4094Y-1.8268
X1.4094Y-1.8701
X1.4094Y-1.9134
X1.4567Y-1.8268
X1.4567Y-1.8701
X1.4567Y-1.9134
X1.4764Y-0.0295
X1.4961Y-3.4764
X1.5354Y-1.563
X1.5354Y-1.6929
X1.563Y-1.5945
X1.563Y-1.6614
X1.5866Y-3.4606
X1.6142Y-1.6732
X1.6142Y-2.0866
X1.6161Y-1.8041
X1.6457Y-3.4134
X1.6693Y-0.2913
X1.6693Y-0.3898
X1.6693Y-0.4882
X1.6693Y-0.5866
X1.6693Y-0.685
X1.6693Y-0.7835
X1.6693Y-0.8819
X1.6693Y-0.9803
X1.6693Y-1.0787
X1.6693Y-1.1772
X1.6693Y-1.2756
X1.6693Y-1.374
X1.6693Y-1.4724
X1.6693Y-1.5709
X1.6693Y-1.6693
X1.6693Y-1.7677
X1.6693Y-1.8661
X1.6693Y-1.9646
X1.6693Y-2.063
X1.6693Y-2.1614
X1.6693Y-2.2598
X1.6693Y-2.3583
X1.6693Y-2.4567
X1.6693Y-2.5551
X1.6693Y-2.6535
X1.6693Y-2.752
X1.6693Y-2.8504
X1.6693Y-2.9488
X1.6693Y-3.0472
X1.6693Y-3.1457
X1.6693Y-3.2441
X1.6693Y-3.3307
T3
X0.722Y-2.989
X0.722Y-3.3118
X0.7346Y-3.0346
X0.7346Y-3.3575
X0.7614Y-2.989
X0.7614Y-3.3118
X0.774Y-3.0346
X0.774Y-3.3575
X0.8008Y-2.989
X0.8008Y-3.3118
X0.8134Y-3.0346
X0.8134Y-3.3575
X0.8402Y-2.989
X0.8402Y-3.3118
X0.8528Y-3.0346
X0.8528Y-3.3575
X0.8795Y-2.989
X0.8795Y-3.3118
X0.8921Y-3.0346
X0.8921Y-3.3575
X0.9189Y-2.989
X0.9189Y-3.3118
X0.9315Y-3.0346
X0.9315Y-3.3575
X0.9583Y-2.989
X0.9583Y-3.3118
X0.9709Y-3.0346
X0.9709Y-3.3575
T4
X0.063Y-0.1575
X0.063Y-2.7559
X0.0907Y-0.0907
X0.0907Y-0.2243
X0.0907Y-2.6891
X0.0907Y-2.8227
X0.1575Y-0.063
X0.1575Y-0.252
X0.1575Y-2.6614
X0.1575Y-2.8504
X0.2243Y-0.0907
X0.2243Y-0.2243
X0.2243Y-2.6891
X0.2243Y-2.8227
X0.252Y-0.1575
X0.252Y-2.7559
X1.4409Y-0.1575
X1.4409Y-2.7559
X1.4686Y-0.0907
X1.4686Y-0.2243
X1.4686Y-2.6891
X1.4686Y-2.8227
X1.5354Y-0.063
X1.5354Y-0.252
X1.5354Y-2.6614
X1.5354Y-2.8504
X1.6022Y-0.0907
X1.6022Y-0.2243
X1.6022Y-2.6891
X1.6022Y-2.8227
X1.6299Y-0.1575
X1.6299Y-2.7559
T6
X0.4232Y-0.2903
X0.5232Y-0.2903
X0.6217Y-0.2903
X0.7201Y-0.2903
T7
X0.128Y-0.4518
X0.128Y-0.7175
X0.128Y-0.9833
X0.128Y-1.249
X0.2037Y-3.3435
X0.228Y-0.4518
X0.228Y-0.7175
X0.228Y-0.9833
X0.228Y-1.249
X0.3037Y-3.3435
X0.4037Y-3.3435
X0.5037Y-3.3435
X0.9539Y-0.3622
X1.1508Y-0.3622
X1.4665Y-0.5108
X1.4665Y-0.7766
X1.514Y-1.0413
X1.514Y-1.1413
X1.514Y-1.2413
X1.514Y-1.3413
X1.514Y-1.4413
X1.5665Y-0.5108
X1.5665Y-0.7766
T8
X1.1024Y-3.061
X1.1024Y-3.2579
X1.5945Y-3.061
X1.5945Y-3.2579
T9
X1.4884Y-2.2835
X1.4884Y-2.4803
T10
X0.1575Y-0.1575
X0.1575Y-2.7559
X1.5354Y-0.1575
X1.5354Y-2.7559
T5
G00X0.7433Y-2.9398
M15
G01X0.763Y-2.9398
M16
G05
G00X0.7433Y-3.0839
M15
G01X0.763Y-3.0839
M16
G05
G00X0.7433Y-3.2626
M15
G01X0.763Y-3.2626
M16
G05
G00X0.7433Y-3.4067
M15
G01X0.763Y-3.4067
M16
G05
G00X0.9299Y-2.9398
M15
G01X0.9496Y-2.9398
M16
G05
G00X0.9299Y-3.0839
M15
G01X0.9496Y-3.0839
M16
G05
G00X0.9299Y-3.2626
M15
G01X0.9496Y-3.2626
M16
G05
G00X0.9299Y-3.4067
M15
G01X0.9496Y-3.4067
M16
G05
T0
M30
